<svg width="800" height="302" viewBox="0 0 800 302" fill="none" xmlns="http://www.w3.org/2000/svg">
  <path
    d="M185.536 46.9915C189.114 49.1023 192.908 50.1581 196.909 50.1581C200.786 50.2542 204.612 49.1657 207.968 46.9915C211.339 44.6277 213.973 41.5709 215.86 37.8002C217.974 33.7982 219.026 29.554 219.026 25.079C219.026 20.3733 217.974 16.1294 215.86 12.3582C213.963 8.59791 211.339 5.6513 207.968 3.51834C204.812 1.17647 201.126 0 196.909 0C192.908 0 189.114 1.17647 185.536 3.52931C182.175 5.6513 179.432 8.59791 177.328 12.3582C175.431 16.1294 174.478 20.3733 174.478 25.079C174.471 29.518 175.451 33.8889 177.328 37.8002C179.396 41.5292 182.205 44.6749 185.536 46.9915Z"
    fill="black"
  />
  <path
    fillRule="evenodd"
    clipRule="evenodd"
    d="M33.4166 302H0V140.029C0 123.364 3.44158 108.403 10.3232 95.1679C17.2796 82.0709 27.1153 71.2173 38.8804 63.6587C51.037 55.9014 64.7058 52.0219 79.8969 52.0219C95.0786 52.0219 108.653 56.0183 120.601 64.0104C132.352 71.7712 142.093 82.8665 148.856 96.1912C155.946 109.436 159.481 124.046 159.481 140.029C159.481 157.153 156.145 172.445 149.461 185.914C142.907 199.01 133.364 209.89 121.82 217.424C110.071 225.181 96.6002 229.06 81.4091 229.06C70.1516 229.143 59.0642 225.962 49.2121 219.821C43.2523 215.982 37.9879 211.482 33.4166 206.326V170.164L16.4014 162.631C16.4014 174.278 19.3408 185.115 25.2116 195.164C27.6402 199.174 30.3749 202.896 33.4166 206.326V302ZM79.8969 193.448C88.8015 193.448 96.7039 191.05 103.586 186.255C110.545 181.613 116.307 175.001 120.299 167.074C124.334 158.913 126.425 149.714 126.368 140.37C126.451 131.129 124.357 122.028 120.299 113.997C116.305 106.072 110.544 99.4598 103.586 94.8163C96.7039 90.0216 88.8015 87.6348 79.8969 87.6348C70.983 87.6348 62.9761 90.0322 55.8863 94.8269C49.0648 99.5495 43.4216 106.15 39.4856 114.007C35.4295 122.035 33.3355 131.133 33.4166 140.37C33.4166 149.961 35.4396 158.859 39.4856 167.074C43.4224 174.934 49.0702 181.536 55.8956 186.255C62.9854 191.05 70.983 193.448 79.8969 193.448Z"
    fill="black"
  />
  <path
    fillRule="evenodd"
    clipRule="evenodd"
    d="M33.4166 170.164V206.326C30.3749 202.896 27.6402 199.174 25.2116 195.164C19.3408 185.115 16.4014 174.278 16.4014 162.631L33.4166 170.164Z"
    fill="black"
  />
  <path
    d="M196.751 63.6091C190.807 63.6091 184.995 61.5176 180.046 57.5956V228.525H213.457V57.5956C208.508 61.5176 202.696 63.6091 196.751 63.6091Z"
    fill="black"
  />
  <path
    d="M694.834 222.781C706.233 229.087 719.708 232.24 735.258 232.24C746.877 232.24 757.61 230.026 767.473 225.585C777.328 221.145 785.217 214.828 791.14 206.645C797.047 198.473 800 188.883 800 177.896C800 166.909 797.823 158.257 793.427 151.961C788.981 145.595 783.108 140.529 776.341 137.233C769.313 133.64 761.93 130.93 754.319 129.159C746.658 127.282 739.317 125.537 732.297 123.9C725.505 122.034 719.809 119.699 715.211 116.885C710.832 113.851 708.629 109.64 708.629 104.272C708.629 100.061 709.836 96.5585 712.249 93.7438C714.823 90.588 718.105 88.1775 721.784 86.7392C725.724 84.8624 730.002 83.9353 734.6 83.9353C742.059 83.9353 748.733 85.452 754.648 88.4845C760.782 91.5287 765.381 96.6674 768.452 103.912L795.731 87.4377C792.28 80.6661 787.715 74.6102 782.256 69.5551C776.56 64.1761 769.658 59.9761 761.558 56.932C753.661 53.6583 744.455 52.0219 733.942 52.0219C721.902 52.0219 711.262 54.3568 702.057 59.0373C692.851 63.7071 685.629 70.0241 680.372 77.9667C675.107 85.921 672.483 94.9221 672.483 104.97C672.483 115.957 674.677 124.719 679.056 131.265C683.595 137.528 689.451 142.571 696.142 145.994C703.238 149.297 710.612 151.879 718.164 153.708C726.062 155.584 733.394 157.33 740.186 158.966C747.198 160.602 752.893 162.818 757.28 165.621C761.879 168.436 764.174 172.757 764.174 178.594C764.174 183.274 762.866 187.246 760.234 190.519C757.61 193.564 753.99 196.018 749.391 197.884C744.287 199.6 738.962 200.429 733.622 200.339C724.846 200.339 717.286 198.582 710.933 195.079C704.799 191.566 699.652 185.73 695.492 177.547L668.213 193.672C674.786 206.525 683.654 216.236 694.834 222.781Z"
    fill="black"
  />
  <path
    d="M237.587 229.016V131.966C237.587 76.4589 258.225 52.0219 293.861 52.0219C314.648 52.0219 322.146 61.4475 333.133 79.6007C344.121 61.4475 351.322 52.0219 372.406 52.0219C408.042 52.0219 428.996 76.4589 428.996 131.966V229.016H395.273V118.907C395.273 95.8665 385.77 87.8372 372.406 87.8372C359.34 87.8372 349.837 95.8665 349.837 118.907V229.016H316.43V118.907C316.43 95.8665 306.927 87.8372 293.861 87.8372C280.497 87.8372 270.994 95.8665 270.994 118.907V229.016H237.587Z"
    fill="black"
  />
  <path
    d="M452.9 229.016V131.966C452.9 76.4589 473.538 52.0219 509.174 52.0219C529.961 52.0219 537.459 61.4475 548.447 79.6007C559.434 61.4475 566.635 52.0219 587.72 52.0219C623.355 52.0219 644.309 76.4589 644.309 131.966V229.016H610.586V118.907C610.586 95.8665 601.083 87.8372 587.72 87.8372C574.653 87.8372 565.15 95.8665 565.15 118.907V229.016H531.743V118.907C531.743 95.8665 522.24 87.8372 509.174 87.8372C495.811 87.8372 486.308 95.8665 486.308 118.907V229.016H452.9Z"
    fill="black"
  />
</svg>

