<svg width="596" height="151" viewBox="0 0 596 151" fill="none" xmlns="http://www.w3.org/2000/svg">
<path d="M123.635 0H26.7851C11.9921 0 0 11.9921 0 26.7851V123.635C0 138.428 11.9921 150.42 26.7851 150.42H123.635C138.428 150.42 150.42 138.428 150.42 123.635V26.7851C150.42 11.9921 138.428 0 123.635 0Z" fill="#FF4D4D"/>
<path d="M79.7089 69.1713H70.8055C68.8379 69.1713 67.2429 70.7656 67.2429 72.7322V78.9622C67.2429 80.9288 68.8379 82.5231 70.8055 82.5231H79.7089C81.6765 82.5231 83.2716 80.9288 83.2716 78.9622V72.7322C83.2716 70.7656 81.6765 69.1713 79.7089 69.1713Z" fill="white"/>
<path d="M96.6298 65.6105V58.0491C96.6298 56.0834 95.0339 54.4882 93.0672 54.4882H64.5725C58.6725 54.4882 53.8846 59.2737 53.8846 65.1708V86.5299C53.8846 92.4333 58.6725 97.2125 64.5725 97.2125H85.9419C91.8482 97.2125 96.6298 93.3188 96.6298 87.4217V86.084C96.6298 84.1183 98.2258 82.5294 100.192 82.5294H106.425C108.392 82.5294 109.988 84.1183 109.988 86.084V93.2058C109.988 100.949 104.924 107.506 97.9179 109.742C96.2528 110.275 94.4684 110.564 92.6211 110.564H57.8871C56.0398 110.564 54.2679 110.275 52.5966 109.742C45.597 107.506 40.5264 100.949 40.5264 93.212V58.495C40.5264 50.7514 45.597 44.1949 52.6028 41.9591C53.0238 41.8272 53.4511 41.7079 53.8846 41.6074V37.9398C53.8846 35.7731 55.6439 34.0146 57.8117 34.0146H63.3158C65.4836 34.0146 67.2429 35.7731 67.2429 37.9398V41.1364H83.2716V37.9398C83.2716 35.7731 85.0309 34.0146 87.1986 34.0146H92.7028C94.8705 34.0146 96.6298 35.7731 96.6298 37.9398V41.6074C97.0634 41.7079 97.4906 41.8272 97.9116 41.9591C104.917 44.1886 109.988 50.7452 109.988 58.4887V65.6105C109.988 67.5762 108.392 69.1713 106.425 69.1713H100.192C98.2258 69.1713 96.6298 67.5762 96.6298 65.6105Z" fill="white"/>
<path d="M205.361 29.0049V119.582C205.361 121.761 203.592 123.53 201.413 123.53H194.798C192.619 123.53 190.85 121.761 190.85 119.582V29.0049C190.85 26.8255 192.619 25.0566 194.798 25.0566H201.413C203.592 25.0566 205.361 26.8255 205.361 29.0049Z" fill="#1D1D1B"/>
<path d="M234.005 94.2652C235.274 104.834 244.005 111.732 256.683 111.732C262.558 111.732 269.703 109.869 274.365 106.476C275.926 105.339 278.067 105.472 279.457 106.818L283.304 110.551C284.991 112.187 284.903 114.942 283.083 116.42C275.844 122.308 265.648 125.258 256.399 125.258C233.575 125.258 218.925 110.747 218.925 88.4913C218.925 66.2356 233.72 52.2871 255.414 52.2871C277.107 52.2871 291.624 64.7321 290.607 90.4812C290.525 92.5975 288.775 94.2716 286.659 94.2716H233.998L234.005 94.2652ZM276.406 82.0098C275.559 71.0241 267.53 65.2438 255.837 65.2438C245.268 65.2438 236.538 71.0178 234.283 82.0098H276.406Z" fill="#1D1D1B"/>
<path d="M349.47 119.582V83.0745C349.47 73.9208 342.06 66.2959 332.906 66.4791C322.83 66.675 316.5 75.1906 316.5 85.3551V119.582C316.5 121.761 314.732 123.53 312.552 123.53H305.938C303.759 123.53 301.99 121.761 301.99 119.582V57.8813C301.99 55.7019 303.759 53.9331 305.938 53.9331H311.965C313.986 53.9331 315.679 55.4555 315.894 57.4644L316.507 63.2321C320.449 55.6261 328.623 52.8086 335.951 52.8086C344.827 52.8086 353.842 56.4726 357.79 66.7571C363.425 56.4726 372.162 52.9539 381.6 52.9539C400.76 52.9539 411.044 65.0704 411.044 85.0771V119.588C411.044 121.768 409.275 123.537 407.096 123.537H400.343C398.163 123.537 396.395 121.768 396.395 119.588V82.2975C396.395 73.7755 389.597 66.6371 381.075 66.6244C370.772 66.6055 364.132 75.0643 364.132 85.3614V119.588C364.132 121.768 362.364 123.537 360.184 123.537H353.431C351.252 123.537 349.483 121.768 349.483 119.588L349.47 119.582Z" fill="#1D1D1B"/>
<path d="M482.694 111.558C484.381 113.22 484.229 115.987 482.378 117.465C475.505 122.967 467.95 125.362 459.352 125.362C439.345 125.362 422.725 112.822 422.725 88.8732C422.725 64.9245 439.206 52.3848 459.352 52.3848C467.571 52.3848 474.646 54.5579 481.203 59.8012C483.016 61.2542 483.206 63.9453 481.601 65.6257L477.659 69.7509C476.32 71.1533 474.147 71.3807 472.561 70.2626C468.626 67.4956 463.97 66.1943 459.497 66.1943C446.958 66.1943 437.235 75.07 437.235 88.8732C437.235 103.523 447.381 111.274 459.352 111.274C464.229 111.274 469.194 110.03 473.313 106.997C474.88 105.841 477.047 105.993 478.43 107.357L482.694 111.558Z" fill="#FF4D4D"/>
<path d="M553.73 54.079H560.073C562.252 54.079 564.021 55.8478 564.021 58.0273V119.583C564.021 121.762 562.252 123.531 560.073 123.531H553.926C551.842 123.531 550.117 121.907 549.984 119.829L549.51 112.261C544.861 121.137 534.153 125.363 525.562 125.363C505.277 125.502 489.92 112.4 489.92 88.7354C489.92 65.071 505.839 52.5312 525.846 52.5312C535.707 52.5312 545.145 57.1807 549.51 65.071L549.788 57.882C549.871 55.7594 551.614 54.0853 553.737 54.0853L553.73 54.079ZM504.424 88.7354C504.424 103.107 514.57 111.838 526.964 111.838C556.971 111.838 556.971 65.7722 526.964 65.7722C514.57 65.7722 504.424 74.509 504.424 88.7354Z" fill="#FF4D4D"/>
<path d="M595.999 29.0049V119.582C595.999 121.761 594.231 123.53 592.051 123.53H585.437C583.258 123.53 581.489 121.761 581.489 119.582V29.0049C581.489 26.8255 583.258 25.0566 585.437 25.0566H592.051C594.231 25.0566 595.999 26.8255 595.999 29.0049Z" fill="#FF4D4D"/>

</svg>

