<svg xmlns="http://www.w3.org/2000/svg" viewBox="0 0 56 88" fill="none">
  <title>Podia icon</title>
  <path fill-rule="evenodd" clip-rule="evenodd" d="M0 85.9439C0 86.7976 0.68952 87.4897 1.54009 87.4897H14.2935C15.1441 87.4897 15.8336 86.7976 15.8336 85.9439V64.8154C19.535 69.356 24.8814 71.8326 31.4616 71.8326C45.3418 71.8326 55.2121 60.5845 55.2121 44.4863C55.2121 28.4912 45.3418 17.2431 31.4616 17.2431C24.8814 17.2431 19.535 19.7197 15.8336 24.157V19.9239C15.8336 19.0702 15.1441 18.3782 14.2935 18.3782H1.54009C0.689521 18.3782 0 19.0702 0 19.9239V85.9439ZM27.1434 58.727C20.0491 58.727 15.0111 52.845 15.0111 44.4863C15.0111 36.2307 20.0491 30.3487 27.1434 30.3487C34.1348 30.3487 39.2756 36.2307 39.2756 44.4863C39.2756 52.7418 34.1348 58.727 27.1434 58.727Z" fill="currentColor"/>
</svg>
